Coordinates
version=1
nRows=22
nColumns=24
inDegrees=yes

Units are S.I. units (second, meters, Newtons, ...)
Angles are in degrees.

endheader
time	pelvis_tilt	pelvis_list	pelvis_rotation	pelvis_tx	pelvis_ty	pelvis_tz	hip_flexion_r	hip_adduction_r	hip_rotation_r	knee_angle_r	ankle_angle_r	subtalar_angle_r	mtp_angle_r	hip_flexion_l	hip_adduction_l	hip_rotation_l	knee_angle_l	ankle_angle_l	subtalar_angle_l	mtp_angle_l	lumbar_extension	lumbar_bending	lumbar_rotation
      1.03733333	      0.41058429	     -4.78322036	     -4.25519481	      0.43030968	      1.01539773	      0.32042115	      9.82426749	      9.18703241	      3.56050964	    -14.69715859	     -3.57733562	    -20.53745713	     -3.44540691	     18.84002736	     -9.72863591	     -6.48172025	    -74.70955568	      4.62272267	    -14.22821427	    -18.91466139	    -11.20792843	      5.72687668	      6.13020156
      1.04150000	      0.61053485	     -4.64854533	     -4.42053944	      0.43562106	      1.01661423	      0.32101632	      9.10473749	      9.03791814	      3.73141615	    -14.37692258	     -3.46186623	    -20.41447413	     -3.42712507	     19.22990951	     -9.57799276	     -6.56040212	    -74.21338826	      4.79687812	    -14.01164505	    -18.91643592	    -11.40305888	      5.46888474	      6.26533209
      1.04566667	      0.81549334	     -4.49766546	     -4.60293633	      0.44092118	      1.01782197	      0.32161488	      8.38408719	      8.86787862	      3.92986043	    -14.06145271	     -3.35563192	    -20.29333670	     -3.40781422	     19.58927558	     -9.41433625	     -6.66966795	    -73.64936464	      4.94502602	    -13.82163130	    -18.91376689	    -11.60613807	      5.22154858	      6.40633213
      1.04983333	      1.00186203	     -4.35876643	     -4.78442629	      0.44621835	      1.01895599	      0.32224611	      7.68466835	      8.71062013	      4.12492853	    -13.74520269	     -3.25534894	    -20.18564470	     -3.38849640	     19.95600878	     -9.27768760	     -6.78761895	    -73.04142390	      5.08573799	    -13.64277801	    -18.90605723	    -11.78497333	      4.96200584	      6.53909304
      1.05400000	      1.19544412	     -4.20866720	     -4.97638065	      0.45149756	      1.02007724	      0.32289586	      6.98253083	      8.53841590	      4.33649106	    -13.43309513	     -3.16209603	    -20.08013340	     -3.36900229	     20.29154587	     -9.13501242	     -6.93123275	    -72.36974161	      5.20060463	    -13.49506819	    -18.89467855	    -11.97363290	      4.70188540	      6.68244637
      1.05816667	      1.38790089	     -4.06771668	     -5.16771263	      0.45676209	      1.02115150	      0.32354880	      6.28591795	      8.37213725	      4.54749908	    -13.12624717	     -3.05778668	    -19.98301177	     -3.35164916	     20.61251988	     -9.00988245	     -7.08202963	    -71.65310085	      5.32711630	    -13.34175082	    -18.88043492	    -12.16214301	      4.44285138	      6.81282525
      1.06233333	      1.58583656	     -3.91909495	     -5.37221649	      0.46201138	      1.02220564	      0.32424264	      5.58970901	      8.19560160	      4.77375163	    -12.82744248	     -2.95877986	    -19.88947015	     -3.33679099	     20.90324767	     -8.88786777	     -7.26285170	    -70.87560523	      5.43188298	    -13.22146545	    -18.86452806	    -12.35506275	      4.16838218	      6.95369199
      1.06650000	      1.73172416	     -3.76824519	     -5.58287790	      0.46725190	      1.02313852	      0.32495763	      4.95969055	      8.02032571	      5.01031157	    -12.54430819	     -2.85961122	    -19.80770034	     -3.32431093	     21.23435286	     -8.77561681	     -7.45388273	    -70.05391267	      5.53180157	    -13.12100154	    -18.84716864	    -12.49073229	      3.88653415	      7.09227811
      1.07066667	      1.90753041	     -3.62885601	     -5.79421525	      0.47246503	      1.02407307	      0.32569129	      4.30041937	      7.85105245	      5.24877068	    -12.26352620	     -2.75968151	    -19.72583097	     -3.31548959	     21.51234561	     -8.68285662	     -7.65890896	    -69.18196023	      5.64065954	    -13.01968373	    -18.82955621	    -12.66128382	      3.61513907	      7.23397262
      1.07483333	      2.06176713	     -3.48080029	     -6.01131311	      0.47766396	      1.02494003	      0.32641601	      3.67678745	      7.66939627	      5.48857464	    -12.00165713	     -2.65261031	    -19.64756531	     -3.31010072	     21.79319829	     -8.58582822	     -7.87944604	    -68.25662589	      5.73752155	    -12.95302699	    -18.81431075	    -12.80673341	      3.34063356	      7.36981653
      1.07900000	      2.21833756	     -3.34418474	     -6.24657266	      0.48285681	      1.02577748	      0.32718546	      3.05400574	      7.49841827	      5.74368326	    -11.74471114	     -2.55476335	    -19.57662949	     -3.30840884	     22.04335646	     -8.51754930	     -8.13328758	    -67.28035530	      5.84355608	    -12.89895401	    -18.79855577	    -12.95207847	      3.07982181	      7.53380330
      1.08316667	      2.35095977	     -3.21352090	     -6.47103141	      0.48802746	      1.02652351	      0.32794734	      2.46468976	      7.33283396	      5.98843567	    -11.49675135	     -2.45883581	    -19.50904574	     -3.31069788	     22.30755063	     -8.45804687	     -8.37956796	    -66.26680001	      5.95309264	    -12.86854606	    -18.78514536	    -13.07424621	      2.81714195	      7.67983205
      1.08733333	      2.46643866	     -3.08155938	     -6.70043783	      0.49318538	      1.02720376	      0.32871366	      1.90510369	      7.16396396	      6.22845905	    -11.26885277	     -2.34421813	    -19.44404913	     -3.31590542	     22.56877634	     -8.40514936	     -8.64255666	    -65.20427270	      6.06056151	    -12.84488043	    -18.77646518	    -13.17581333	      2.55714785	      7.81295994
      1.09150000	      2.56398168	     -2.95907588	     -6.93222153	      0.49834429	      1.02781253	      0.32949617	      1.37161735	      7.00465179	      6.45967466	    -11.05314296	     -2.22958574	    -19.38707763	     -3.32470694	     22.82756667	     -8.37317735	     -8.91908802	    -64.09810356	      6.16684656	    -12.83650476	    -18.77233653	    -13.25003554	      2.30635947	      7.95480968
      1.09566667	      2.68086449	     -2.84494183	     -7.16874950	      0.50344750	      1.02840853	      0.33026963	      0.82120412	      6.84838608	      6.71884075	    -10.83810901	     -2.12250206	    -19.32767207	     -3.33787308	     23.04517497	     -8.34804811	     -9.20321699	    -62.94680514	      6.28665275	    -12.85068590	    -18.77345901	    -13.36359462	      2.06432734	      8.11145577
      1.09983333	      2.73010691	     -2.74428688	     -7.39188870	      0.50857739	      1.02884752	      0.33102052	      0.35104566	      6.71161481	      6.94517778	    -10.63993938	     -2.01503924	    -19.27807274	     -3.35387189	     23.32249208	     -8.34462960	     -9.47785150	    -61.76666848	      6.40859926	    -12.88020845	    -18.78074869	    -13.39290551	      1.84971714	      8.24629939
      1.10400000	      2.79743423	     -2.64658696	     -7.62500628	      0.51368410	      1.02927650	      0.33179435	     -0.13074438	      6.57320903	      7.17387038	    -10.45512963	     -1.89103304	    -19.22458632	     -3.37176016	     23.55334656	     -8.35114669	     -9.77838299	    -60.53541185	      6.51406563	    -12.92298286	    -18.79563162	    -13.44266060	      1.62911269	      8.37934484
      1.10816667	      2.86166681	     -2.56595076	     -7.84990642	      0.51877412	      1.02965173	      0.33255154	     -0.60774304	      6.45043014	      7.39659294	    -10.27171590	     -1.77624122	    -19.18526137	     -3.39225712	     23.77030234	     -8.37593370	    -10.07800919	    -59.26880654	      6.62254040	    -12.97672661	    -18.81845095	    -13.49253127	      1.43057302	      8.51603752
      1.11233333	      2.90506413	     -2.48710828	     -8.07849995	      0.52387333	      1.02995338	      0.33332166	     -1.05705614	      6.32964783	      7.60732061	    -10.09655851	     -1.65378544	    -19.14043671	     -3.41362365	     23.98584620	     -8.41102223	    -10.39668453	    -57.96092189	      6.72163785	    -13.04796495	    -18.84931330	    -13.51906010	      1.23145972	      8.64576893
      1.11650000	      2.94105057	     -2.43042825	     -8.29617257	      0.52893807	      1.03019082	      0.33404448	     -1.49240439	      6.22965585	      7.81794545	     -9.93592873	     -1.53089109	    -19.10262314	     -3.43535569	     24.19556522	     -8.46306375	    -10.70065911	    -56.62077454	      6.81386060	    -13.12617647	    -18.88806261	    -13.54013180	      1.06919452	      8.77832762
      1.12066667	      2.94328867	     -2.38801476	     -8.50952511	      0.53401373	      1.03033188	      0.33475869	     -1.88901418	      6.14839110	      8.01481483	     -9.78201714	     -1.40930508	    -19.06571495	     -3.45744403	     24.42327238	     -8.53461986	    -11.00573178	    -55.25164573	      6.90360072	    -13.22054401	    -18.93567753	    -13.52448710	      0.92719099	      8.90958582
      1.12483333	      2.98955375	     -2.35444731	     -8.74832744	      0.53907771	      1.03050738	      0.33552579	     -2.33417402	      6.06601684	      8.23498315	     -9.62314260	     -1.30178415	    -19.01962965	     -3.48888728	     24.56742409	     -8.62744322	    -11.36521650	    -53.83722404	      7.01291184	    -13.30718205	    -19.01127043	    -13.56604508	      0.77813604	      9.09369815
